<svg xmlns="http://www.w3.org/2000/svg" viewBox="0 0 24 30" x="0px" y="0px"><title>Square Arrow Right</title><g data-name="Layer 10"><path d="M17.92,11.62a1,1,0,0,1,0,.76,1,1,0,0,1-.21.33l-4,4a1,1,0,0,1-1.42,0,1,1,0,0,1,0-1.42L14.59,13H7a1,1,0,0,1,0-2h7.59l-2.3-2.29a1,1,0,1,1,1.42-1.42l4,4A1,1,0,0,1,17.92,11.62ZM22,5V19a3,3,0,0,1-3,3H5a3,3,0,0,1-3-3V5A3,3,0,0,1,5,2H19A3,3,0,0,1,22,5ZM20,5a1,1,0,0,0-1-1H5A1,1,0,0,0,4,5V19a1,1,0,0,0,1,1H19a1,1,0,0,0,1-1Z"/></g><text x="0" y="39" fill="#000000" font-size="5px" font-weight="bold" font-family="'Helvetica Neue', Helvetica, Arial-Unicode, Arial, Sans-serif">Created by Caesar Rizky Kurniawan</text><text x="0" y="44" fill="#000000" font-size="5px" font-weight="bold" font-family="'Helvetica Neue', Helvetica, Arial-Unicode, Arial, Sans-serif">from the Noun Project</text></svg>